<svg height="512pt" viewBox="0 -45 512 512" width="512pt" xmlns="http://www.w3.org/2000/svg"><path d="m452 300c9.824219 0-431.691406 0-437 0-8.40625 0-15 6.527344-15 15 0 8.402344 6.597656 15 15 15 1.136719 2.300781 6.238281 2.589844 8.5625 15h383.4375c8.289062 0 15 6.710938 15 15s-6.710938 15-15 15h-383.433594c-2.324218 12.40625-7.417968 13.679688-8.566406 16-8.402344 0-15 6.597656-15 15 0 8.476562 6.59375 15 15 15h437c32.921875 0 60-27.859375 60-61 0-31.964844-26.0625-60-60-60zm0 0"/><path d="m452 150c9.824219 0-371.691406 0-377 0-8.40625 0-15 6.527344-15 15 0 8.402344 6.597656 15 15 15 1.136719 2.300781 6.238281 2.589844 8.5625 15h323.4375c8.289062 0 15 6.710938 15 15s-6.710938 15-15 15h-323.433594c-2.324218 12.40625-7.417968 12.679688-8.566406 15-8.402344 0-15 6.597656-15 15 0 8.476562 6.59375 15 15 15h377c32.921875 0 60-26.859375 60-60 0-31.964844-26.0625-60-60-60zm0 0"/><path d="m452 0c33.9375 0 60 28.035156 60 60 0 33.140625-27.078125 60-60 60-6.386719 0-259.03125 0-256 0-8.40625 0-15-6.523438-15-15 0-8.402344 6.597656-15 15-15 1.148438-2.320312 6.238281-2.59375 8.566406-15h202.433594c8.289062 0 15-6.710938 15-15s-6.710938-15-15-15h-202.4375c-2.324219-12.410156-7.425781-12.699219-8.5625-15-8.402344 0-15-6.597656-15-15 0-8.472656 6.59375-15 15-15 2.679688 0 260.085938 0 256 0zm0 0"/></svg>